<?xml version="1.0" standalone="no"?>
<!DOCTYPE svg PUBLIC "-//W3C//DTD SVG 20010904//EN"
 "http://www.w3.org/TR/2001/REC-SVG-20010904/DTD/svg10.dtd">
<svg version="1.0" xmlns="http://www.w3.org/2000/svg"
 width="1280.000000pt" height="675.000000pt" viewBox="0 0 1280.000000 675.000000"
 preserveAspectRatio="xMidYMid meet">
<metadata>
Created by potrace 1.15, written by Peter Selinger 2001-2017
</metadata>
<g transform="translate(0.000000,675.000000) scale(0.100000,-0.100000)"
fill="#000000" stroke="none">
<path d="M4255 6741 c-57 -15 -140 -54 -168 -80 -71 -64 -82 -101 -93 -298 -4
-69 -11 -106 -20 -114 -8 -6 -14 -22 -14 -34 0 -25 -17 -35 -61 -35 -44 0 -89
-22 -137 -68 -41 -40 -91 -72 -277 -182 -114 -68 -269 -180 -343 -248 -31 -29
-70 -56 -85 -59 -15 -3 -32 -14 -38 -24 -5 -11 -16 -19 -24 -19 -8 0 -22 -11
-31 -25 -9 -14 -31 -32 -49 -39 -18 -8 -42 -28 -54 -45 -12 -16 -48 -44 -80
-61 -32 -17 -95 -61 -141 -98 -45 -37 -107 -83 -137 -103 -66 -44 -133 -108
-133 -127 0 -8 -14 -30 -31 -50 -18 -20 -41 -56 -52 -81 -11 -26 -30 -60 -43
-76 -25 -33 -124 -260 -124 -283 0 -8 -8 -26 -18 -40 -11 -15 -35 -58 -56 -97
-20 -38 -84 -133 -142 -210 -58 -77 -121 -171 -140 -210 -19 -38 -46 -82 -60
-96 l-26 -27 -86 39 c-97 45 -179 74 -267 94 -33 7 -100 27 -148 44 -74 26
-103 31 -181 31 -78 0 -94 3 -108 19 -9 11 -33 23 -52 27 -25 4 -45 18 -67 45
-38 48 -100 86 -154 94 -37 6 -47 3 -105 -39 -95 -67 -199 -135 -277 -183 -82
-51 -130 -98 -178 -178 -76 -127 -67 -210 26 -229 36 -7 65 7 169 80 75 52 86
56 240 84 116 22 224 4 298 -49 19 -13 64 -29 104 -37 38 -7 84 -20 101 -29
17 -8 69 -25 115 -36 46 -11 91 -24 100 -29 10 -4 46 -19 82 -31 36 -13 126
-60 200 -105 175 -106 192 -112 272 -95 127 26 153 46 478 351 172 163 208
191 371 288 61 37 67 33 143 -96 38 -64 84 -135 101 -157 69 -86 182 -262 187
-290 3 -16 12 -45 19 -62 15 -36 9 -50 -66 -178 -51 -87 -157 -307 -193 -400
-16 -44 -38 -118 -47 -165 -9 -47 -34 -125 -55 -175 -49 -117 -49 -117 -59
-225 -7 -75 -12 -96 -29 -109 -37 -30 -52 -75 -52 -160 0 -57 5 -90 18 -113
15 -29 17 -59 14 -261 l-3 -227 -185 0 -184 0 0 305 0 305 -273 0 -274 0 -6
-382 c-4 -211 -7 -610 -7 -888 l-1 -505 276 -3 275 -2 0 305 0 305 192 0 191
0 -7 -303 -6 -304 271 -6 c149 -4 275 -5 279 -2 4 2 10 367 13 811 4 444 8
809 10 810 1 2 54 6 117 10 110 6 116 8 148 37 36 35 40 55 15 86 -15 18 -32
22 -115 26 -112 5 -146 19 -223 89 -27 25 -53 46 -57 46 -4 0 -8 7 -8 15 0 9
-12 20 -26 25 -21 8 -25 15 -19 33 8 27 8 37 0 63 -5 16 -2 23 13 26 13 4 23
18 27 39 4 19 18 44 31 56 23 21 28 36 25 79 -1 11 15 54 36 95 70 135 236
424 258 449 13 14 58 86 101 160 l79 135 -1 115 c0 103 -4 131 -43 273 -74
274 -140 464 -206 587 -13 25 -24 51 -24 58 -1 15 59 108 90 139 12 12 41 32
65 43 48 24 94 72 124 129 33 66 358 371 394 371 7 0 53 -53 102 -117 148
-196 209 -244 348 -275 106 -23 220 -22 326 3 47 11 132 27 189 34 112 16 136
28 146 77 9 37 61 64 85 44 8 -8 26 -16 40 -19 52 -12 154 -52 223 -86 l72
-36 1 -55 c2 -88 1 -87 39 -94 62 -12 82 -40 126 -181 23 -71 54 -171 70 -222
16 -50 29 -102 29 -115 0 -13 4 -28 9 -34 5 -5 28 -67 51 -139 96 -299 143
-431 162 -458 26 -36 23 -44 -86 -196 -46 -64 -115 -163 -154 -221 -39 -58
-119 -172 -177 -255 -154 -220 -243 -353 -251 -378 -10 -32 -23 -46 -65 -67
-54 -28 -79 -74 -79 -147 0 -83 -22 -103 -112 -103 l-65 0 -6 -527 c-4 -289
-7 -690 -7 -890 l0 -363 275 0 275 0 0 124 0 124 243 4 c230 4 246 6 322 31
120 40 199 90 306 197 80 79 103 110 141 187 65 128 81 212 76 376 -4 110 -9
145 -32 212 -86 250 -314 454 -561 500 -49 9 -179 17 -336 21 l-255 6 17 68
c9 38 14 80 12 94 -3 14 0 33 7 41 7 8 17 36 21 62 10 53 37 94 464 709 156
224 152 219 205 248 39 22 60 26 121 26 41 -1 86 -6 101 -13 26 -11 345 -275
693 -572 174 -149 373 -318 412 -350 35 -29 19 -67 -35 -83 -23 -7 -53 -27
-71 -47 -46 -53 -50 -105 -14 -194 5 -12 -43 -13 -315 -7 l-320 8 -6 -254 c-3
-139 -7 -539 -9 -889 l-2 -637 267 -7 c146 -4 271 -4 277 0 7 4 11 53 11 131
l0 124 223 0 c194 0 234 3 303 21 132 35 225 90 335 199 155 154 217 290 226
501 10 220 -50 389 -194 549 -97 108 -256 203 -388 231 -33 7 -63 18 -67 23
-14 21 -8 52 17 86 14 19 25 44 25 57 0 13 5 32 12 42 10 17 6 26 -25 64 -20
25 -37 52 -37 60 0 8 -7 20 -15 27 -8 7 -15 19 -15 26 0 8 -4 14 -10 14 -8 0
-178 144 -744 629 -88 75 -180 154 -206 176 -237 202 -240 205 -227 225 21 34
42 38 372 70 146 15 868 122 879 131 7 6 -35 652 -51 767 -4 32 -12 46 -27 53
-12 4 -111 20 -221 34 -867 110 -1328 167 -1490 185 -263 29 -253 27 -269 59
-9 16 -32 35 -58 46 -183 77 -248 121 -265 178 -7 23 -26 59 -44 80 -35 43
-29 42 -206 11 -77 -14 -84 -14 -120 4 -44 23 -167 52 -216 52 -50 0 -157 35
-227 75 -34 19 -67 35 -74 35 -7 0 -36 15 -66 34 -42 27 -61 48 -91 101 l-37
67 6 111 5 112 48 58 c65 77 71 90 59 121 -8 21 -5 31 17 57 l27 31 90 -3 91
-4 3 45 c1 25 7 54 13 66 8 16 6 28 -11 57 -21 35 -21 37 -3 43 45 15 62 28
65 53 2 15 13 30 26 37 12 6 25 14 28 17 6 6 -12 41 -44 80 -16 20 -22 41 -21
70 1 23 -4 60 -10 82 -24 79 -24 83 2 115 39 46 43 70 16 91 -13 10 -33 20
-44 22 -11 3 -73 19 -137 35 -138 36 -192 44 -233 33z m1680 -5280 c22 -10 52
-31 67 -47 99 -106 65 -274 -67 -335 -34 -16 -66 -19 -222 -19 l-183 0 0 210
0 210 183 0 c156 0 188 -3 222 -19z m1761 -26 c112 -70 135 -218 48 -315 -59
-66 -78 -70 -295 -70 l-192 0 6 137 c4 75 7 170 7 210 l0 75 188 -4 189 -3 49
-30z"/>
<path d="M9126 1726 c-3 -220 -7 -647 -9 -948 l-4 -548 279 0 278 0 0 375 c0
206 4 375 8 375 4 0 37 -24 73 -53 302 -248 1143 -917 1147 -912 8 8 22 1969
13 1978 -4 4 -129 6 -277 5 l-269 -3 -5 -424 -5 -424 -611 490 -612 491 -6
-402z"/>
<path d="M947 2085 c-194 -37 -375 -150 -483 -301 -99 -138 -147 -289 -147
-454 0 -219 74 -388 256 -583 l55 -59 -152 -148 c-172 -168 -168 -154 -61
-219 140 -85 343 -93 485 -21 108 55 203 169 240 289 40 128 20 294 -49 402
-16 26 -67 87 -114 136 -95 100 -111 136 -105 224 11 156 185 246 321 166 l48
-28 87 80 c155 142 305 298 298 310 -15 23 -143 113 -201 141 -142 68 -329 93
-478 65z"/>
<path d="M3893 2074 c-302 -66 -564 -331 -628 -634 -19 -92 -19 -269 0 -361
34 -162 95 -269 230 -404 134 -134 244 -197 408 -232 105 -22 328 -13 422 17
276 87 493 312 566 586 30 111 30 316 1 427 -34 125 -102 246 -196 344 -135
143 -271 223 -436 258 -88 18 -281 18 -367 -1z m302 -558 c62 -28 126 -97 150
-159 22 -57 17 -165 -9 -219 -23 -48 -86 -111 -134 -134 -54 -26 -162 -31
-219 -9 -57 22 -128 85 -155 139 -29 56 -35 150 -14 214 22 66 87 139 151 168
69 33 161 33 230 0z"/>
<path d="M11862 2039 c-372 -48 -693 -329 -794 -694 -18 -68 -22 -105 -21
-250 0 -155 2 -178 26 -258 62 -201 180 -371 350 -501 143 -109 318 -173 506
-183 89 -5 319 8 389 23 22 4 22 6 22 174 l0 170 80 0 80 0 0 275 0 275 -173
0 c-96 0 -256 3 -355 7 l-182 6 0 -161 c0 -108 -4 -162 -11 -162 -20 0 -116
100 -141 147 -82 153 -53 349 69 471 156 156 405 156 563 2 49 -48 110 -155
110 -193 0 -10 4 -17 9 -15 4 2 99 97 210 212 l202 208 -17 27 c-39 61 -127
161 -179 202 -220 177 -478 253 -743 218z"/>
<path d="M8457 1648 c-4 -199 -7 -599 -7 -890 l0 -528 275 0 275 0 0 378 c0
208 3 609 7 890 l6 512 -275 0 -275 0 -6 -362z"/>
</g>
</svg>
